<mxfile host="app.diagrams.net" modified="2021-05-23T05:25:37.488Z" agent="5.0 (Macintosh; Intel Mac OS X 10_15_7) AppleWebKit/537.36 (KHTML, like Gecko) Chrome/90.0.4430.212 Safari/537.36" etag="otEw_PUaXqNUTIb9cz-6" version="14.6.0" type="github">
  <diagram id="axKhj4clLCOOD1fbwa7H" name="Page-1">
    <mxGraphModel dx="1425" dy="709" grid="1" gridSize="10" guides="1" tooltips="1" connect="1" arrows="1" fold="1" page="1" pageScale="1" pageWidth="827" pageHeight="1169" math="0" shadow="0">
      <root>
        <mxCell id="0" />
        <mxCell id="1" parent="0" />
        <mxCell id="sd7PGu3wtOE26qX4IA1V-1" value="CEO&lt;br&gt;Tianqing" style="rounded=1;whiteSpace=wrap;html=1;fillColor=#dae8fc;strokeColor=#6c8ebf;" vertex="1" parent="1">
          <mxGeometry x="440" y="200" width="120" height="80" as="geometry" />
        </mxCell>
        <mxCell id="sd7PGu3wtOE26qX4IA1V-22" style="edgeStyle=orthogonalEdgeStyle;rounded=0;orthogonalLoop=1;jettySize=auto;html=1;entryX=0.25;entryY=1;entryDx=0;entryDy=0;" edge="1" parent="1" source="sd7PGu3wtOE26qX4IA1V-2" target="sd7PGu3wtOE26qX4IA1V-1">
          <mxGeometry relative="1" as="geometry">
            <Array as="points">
              <mxPoint x="340" y="310" />
              <mxPoint x="470" y="310" />
            </Array>
          </mxGeometry>
        </mxCell>
        <mxCell id="sd7PGu3wtOE26qX4IA1V-2" value="Sales Manager&lt;br&gt;(To Be Determined)" style="rounded=1;whiteSpace=wrap;html=1;fillColor=#fff2cc;strokeColor=#d6b656;" vertex="1" parent="1">
          <mxGeometry x="280" y="360" width="120" height="80" as="geometry" />
        </mxCell>
        <mxCell id="sd7PGu3wtOE26qX4IA1V-23" style="edgeStyle=orthogonalEdgeStyle;rounded=0;orthogonalLoop=1;jettySize=auto;html=1;entryX=0.5;entryY=1;entryDx=0;entryDy=0;" edge="1" parent="1" source="sd7PGu3wtOE26qX4IA1V-4" target="sd7PGu3wtOE26qX4IA1V-1">
          <mxGeometry relative="1" as="geometry" />
        </mxCell>
        <mxCell id="sd7PGu3wtOE26qX4IA1V-4" value="Finance Manager&lt;br&gt;(To Be Determined)" style="rounded=1;whiteSpace=wrap;html=1;fillColor=#fff2cc;strokeColor=#d6b656;" vertex="1" parent="1">
          <mxGeometry x="440" y="360" width="120" height="80" as="geometry" />
        </mxCell>
        <mxCell id="sd7PGu3wtOE26qX4IA1V-24" style="edgeStyle=orthogonalEdgeStyle;rounded=0;orthogonalLoop=1;jettySize=auto;html=1;entryX=0.75;entryY=1;entryDx=0;entryDy=0;" edge="1" parent="1" source="sd7PGu3wtOE26qX4IA1V-5" target="sd7PGu3wtOE26qX4IA1V-1">
          <mxGeometry relative="1" as="geometry">
            <Array as="points">
              <mxPoint x="660" y="310" />
              <mxPoint x="530" y="310" />
            </Array>
          </mxGeometry>
        </mxCell>
        <mxCell id="sd7PGu3wtOE26qX4IA1V-5" value="Product Manager&lt;br&gt;Xiangwei" style="rounded=1;whiteSpace=wrap;html=1;fillColor=#dae8fc;strokeColor=#6c8ebf;" vertex="1" parent="1">
          <mxGeometry x="600" y="360" width="120" height="80" as="geometry" />
        </mxCell>
        <mxCell id="sd7PGu3wtOE26qX4IA1V-25" style="edgeStyle=orthogonalEdgeStyle;rounded=0;orthogonalLoop=1;jettySize=auto;html=1;" edge="1" parent="1" source="sd7PGu3wtOE26qX4IA1V-6" target="sd7PGu3wtOE26qX4IA1V-1">
          <mxGeometry relative="1" as="geometry" />
        </mxCell>
        <mxCell id="sd7PGu3wtOE26qX4IA1V-6" value="CTO&lt;br&gt;David" style="rounded=1;whiteSpace=wrap;html=1;fillColor=#dae8fc;strokeColor=#6c8ebf;" vertex="1" parent="1">
          <mxGeometry x="840" y="200" width="120" height="80" as="geometry" />
        </mxCell>
        <mxCell id="sd7PGu3wtOE26qX4IA1V-20" style="edgeStyle=orthogonalEdgeStyle;rounded=0;orthogonalLoop=1;jettySize=auto;html=1;entryX=0.25;entryY=1;entryDx=0;entryDy=0;" edge="1" parent="1" source="sd7PGu3wtOE26qX4IA1V-7" target="sd7PGu3wtOE26qX4IA1V-6">
          <mxGeometry relative="1" as="geometry" />
        </mxCell>
        <mxCell id="sd7PGu3wtOE26qX4IA1V-7" value="Frontend Developer&lt;br&gt;(To Be Determined)" style="rounded=1;whiteSpace=wrap;html=1;fillColor=#fff2cc;strokeColor=#d6b656;" vertex="1" parent="1">
          <mxGeometry x="760" y="480" width="120" height="80" as="geometry" />
        </mxCell>
        <mxCell id="sd7PGu3wtOE26qX4IA1V-21" style="edgeStyle=orthogonalEdgeStyle;rounded=0;orthogonalLoop=1;jettySize=auto;html=1;entryX=0.75;entryY=1;entryDx=0;entryDy=0;" edge="1" parent="1" source="sd7PGu3wtOE26qX4IA1V-8" target="sd7PGu3wtOE26qX4IA1V-6">
          <mxGeometry relative="1" as="geometry" />
        </mxCell>
        <mxCell id="sd7PGu3wtOE26qX4IA1V-8" value="Backend &amp;amp; Devops&lt;br&gt;(To Be Determined)" style="rounded=1;whiteSpace=wrap;html=1;fillColor=#fff2cc;strokeColor=#d6b656;" vertex="1" parent="1">
          <mxGeometry x="920" y="480" width="120" height="80" as="geometry" />
        </mxCell>
        <mxCell id="sd7PGu3wtOE26qX4IA1V-19" style="edgeStyle=orthogonalEdgeStyle;rounded=0;orthogonalLoop=1;jettySize=auto;html=1;" edge="1" parent="1" source="sd7PGu3wtOE26qX4IA1V-9" target="sd7PGu3wtOE26qX4IA1V-5">
          <mxGeometry relative="1" as="geometry" />
        </mxCell>
        <mxCell id="sd7PGu3wtOE26qX4IA1V-9" value="Designer&lt;br&gt;(To Be Determined)" style="rounded=1;whiteSpace=wrap;html=1;fillColor=#fff2cc;strokeColor=#d6b656;" vertex="1" parent="1">
          <mxGeometry x="600" y="480" width="120" height="80" as="geometry" />
        </mxCell>
        <mxCell id="sd7PGu3wtOE26qX4IA1V-10" value="" style="endArrow=none;dashed=1;html=1;" edge="1" parent="1">
          <mxGeometry width="50" height="50" relative="1" as="geometry">
            <mxPoint x="120" y="340" as="sourcePoint" />
            <mxPoint x="1160" y="340" as="targetPoint" />
          </mxGeometry>
        </mxCell>
        <mxCell id="sd7PGu3wtOE26qX4IA1V-11" value="" style="endArrow=none;dashed=1;html=1;" edge="1" parent="1">
          <mxGeometry width="50" height="50" relative="1" as="geometry">
            <mxPoint x="120" y="460" as="sourcePoint" />
            <mxPoint x="1160" y="460" as="targetPoint" />
          </mxGeometry>
        </mxCell>
        <mxCell id="sd7PGu3wtOE26qX4IA1V-12" value="Officer" style="text;html=1;strokeColor=none;fillColor=none;align=center;verticalAlign=middle;whiteSpace=wrap;rounded=0;" vertex="1" parent="1">
          <mxGeometry x="120" y="270" width="60" height="20" as="geometry" />
        </mxCell>
        <mxCell id="sd7PGu3wtOE26qX4IA1V-13" value="Manager" style="text;html=1;strokeColor=none;fillColor=none;align=center;verticalAlign=middle;whiteSpace=wrap;rounded=0;" vertex="1" parent="1">
          <mxGeometry x="120" y="390" width="60" height="20" as="geometry" />
        </mxCell>
        <mxCell id="sd7PGu3wtOE26qX4IA1V-14" value="Stuff" style="text;html=1;strokeColor=none;fillColor=none;align=center;verticalAlign=middle;whiteSpace=wrap;rounded=0;" vertex="1" parent="1">
          <mxGeometry x="120" y="510" width="60" height="20" as="geometry" />
        </mxCell>
        <mxCell id="sd7PGu3wtOE26qX4IA1V-15" value="Already hired" style="rounded=0;whiteSpace=wrap;html=1;fillColor=#dae8fc;strokeColor=#6c8ebf;" vertex="1" parent="1">
          <mxGeometry x="120" y="120" width="160" height="20" as="geometry" />
        </mxCell>
        <mxCell id="sd7PGu3wtOE26qX4IA1V-16" value="(To Be Determined)" style="rounded=0;whiteSpace=wrap;html=1;fillColor=#ffe6cc;strokeColor=#d79b00;" vertex="1" parent="1">
          <mxGeometry x="120" y="150" width="160" height="20" as="geometry" />
        </mxCell>
      </root>
    </mxGraphModel>
  </diagram>
</mxfile>
